<svg width="26" height="26" viewBox="0 0 26 26" fill="none" xmlns="http://www.w3.org/2000/svg">
<path d="M12.9998 4.16C17.8878 4.16 21.8398 8.112 21.8398 13C21.8398 17.888 17.8878 21.84 12.9998 21.84C8.11184 21.84 4.15984 17.888 4.15984 13C4.15984 8.112 8.11184 4.16 12.9998 4.16ZM12.9998 20.8C17.3158 20.8 20.7998 17.316 20.7998 13C20.7998 8.684 17.3158 5.2 12.9998 5.2C8.68384 5.2 5.19984 8.684 5.19984 13C5.19984 17.316 8.68384 20.8 12.9998 20.8Z" fill="#592502"/>
<path d="M8.68395 12.116L12.9999 16.432L17.3159 12.116L18.0439 12.844L12.9999 17.888L7.95594 12.844L8.68395 12.116Z" fill="#592502"/>
<path d="M13.5195 17.16L12.4795 17.16L12.4795 8.32L13.5195 8.32L13.5195 17.16Z" fill="#592502"/>
</svg>
