<svg width="38" height="38" viewBox="0 0 38 38" fill="none" xmlns="http://www.w3.org/2000/svg">
<path d="M30.0837 26.9166H33.2503C34.2003 26.9166 34.8337 26.2833 34.8337 25.3333V20.5833C34.8337 19.1583 33.7253 17.8916 32.4587 17.5749C29.6087 16.7833 25.3337 15.8333 25.3337 15.8333C25.3337 15.8333 23.2753 13.6166 21.8503 12.1916C21.0587 11.5583 20.1087 11.0833 19.0003 11.0833H7.91699C6.96699 11.0833 6.17533 11.7166 5.70033 12.5083L3.48366 17.0999C3.27399 17.7114 3.16699 18.3535 3.16699 18.9999V25.3333C3.16699 26.2833 3.80033 26.9166 4.75033 26.9166H7.91699" stroke="#592502" stroke-width="3" stroke-linecap="round" stroke-linejoin="round"/>
<path d="M11.0837 30.0833C12.8326 30.0833 14.2503 28.6656 14.2503 26.9167C14.2503 25.1678 12.8326 23.75 11.0837 23.75C9.33476 23.75 7.91699 25.1678 7.91699 26.9167C7.91699 28.6656 9.33476 30.0833 11.0837 30.0833Z" stroke="#592502" stroke-width="3" stroke-linecap="round" stroke-linejoin="round"/>
<path d="M14.25 26.9165H23.75" stroke="#592502" stroke-width="3" stroke-linecap="round" stroke-linejoin="round"/>
<path d="M26.9167 30.0833C28.6656 30.0833 30.0833 28.6656 30.0833 26.9167C30.0833 25.1678 28.6656 23.75 26.9167 23.75C25.1678 23.75 23.75 25.1678 23.75 26.9167C23.75 28.6656 25.1678 30.0833 26.9167 30.0833Z" stroke="#592502" stroke-width="3" stroke-linecap="round" stroke-linejoin="round"/>
</svg>
