<svg width="24" height="24" viewBox="0 0 24 24" fill="none" xmlns="http://www.w3.org/2000/svg">
<g clip-path="url(#clip0_150_4)">
<path d="M21.5998 12H2.3998M21.5998 12C22.0242 12 22.4311 11.8315 22.7312 11.5314C23.0312 11.2314 23.1998 10.8244 23.1998 10.4V8.80005C23.1998 8.3757 23.0312 7.96874 22.7312 7.66868C22.4311 7.36862 22.0242 7.20005 21.5998 7.20005H2.3998C1.97546 7.20005 1.56849 7.36862 1.26843 7.66868C0.968376 7.96874 0.799805 8.3757 0.799805 8.80005V10.4C0.799805 10.8244 0.968376 11.2314 1.26843 11.5314C1.56849 11.8315 1.97546 12 2.3998 12M21.5998 12V20C21.5998 20.8487 21.2627 21.6627 20.6625 22.2628C20.0624 22.8629 19.2485 23.2 18.3998 23.2H5.5998C4.75111 23.2 3.93718 22.8629 3.33706 22.2628C2.73695 21.6627 2.3998 20.8487 2.3998 20V12M11.9998 7.20005V5.60005M11.9998 7.20005H6.74221C6.38207 7.20005 6.02546 7.12911 5.69273 6.9913C5.36001 6.85348 5.05769 6.65147 4.80304 6.39682C4.28874 5.88252 3.9998 5.18498 3.9998 4.45765V4.00005C3.9998 3.15136 4.33695 2.33742 4.93706 1.73731C5.53718 1.13719 6.35111 0.800049 7.1998 0.800049C8.47284 0.800049 9.69374 1.30576 10.5939 2.20594C11.4941 3.10611 11.9998 4.32701 11.9998 5.60005M11.9998 7.20005H17.2574C18.7726 7.20005 19.9998 5.97125 19.9998 4.45765V4.00005C19.9998 3.15136 19.6627 2.33742 19.0625 1.73731C18.4624 1.13719 17.6485 0.800049 16.7998 0.800049C15.5268 0.800049 14.3059 1.30576 13.4057 2.20594C12.5055 3.10611 11.9998 4.32701 11.9998 5.60005M11.9998 7.20005V23.2" stroke="#592502" stroke-width="2"/>
</g>
<defs>
<clipPath id="clip0_150_4">
<rect width="24" height="24" fill="white"/>
</clipPath>
</defs>
</svg>
