<svg width="20" height="20" viewBox="0 0 20 20" fill="none" xmlns="http://www.w3.org/2000/svg">
<path d="M8 10C8 10.2652 7.89464 10.5196 7.70711 10.7071C7.51957 10.8946 7.26522 11 7 11C6.73478 11 6.48043 10.8946 6.29289 10.7071C6.10536 10.5196 6 10.2652 6 10C6 9.73478 6.10536 9.48043 6.29289 9.29289C6.48043 9.10536 6.73478 9 7 9C7.26522 9 7.51957 9.10536 7.70711 9.29289C7.89464 9.48043 8 9.73478 8 10ZM13 11C13.2652 11 13.5196 10.8946 13.7071 10.7071C13.8946 10.5196 14 10.2652 14 10C14 9.73478 13.8946 9.48043 13.7071 9.29289C13.5196 9.10536 13.2652 9 13 9C12.7348 9 12.4804 9.10536 12.2929 9.29289C12.1054 9.48043 12 9.73478 12 10C12 10.2652 12.1054 10.5196 12.2929 10.7071C12.4804 10.8946 12.7348 11 13 11Z" fill="#592502"/>
<path fill-rule="evenodd" clip-rule="evenodd" d="M10.024 1.13125e-05H10C4.477 1.13125e-05 0 4.47701 0 10C0 15.523 4.477 20 10 20C15.523 20 20 15.523 20 10C20 4.74201 15.942 0.432011 10.788 0.0300113V0.0280114C10.5341 0.00896861 10.2786 -0.000371645 10.024 1.13125e-05ZM10 18C11.223 18.0003 12.4298 17.7201 13.5276 17.1811C14.6254 16.6421 15.5851 15.8585 16.3327 14.8907C17.0804 13.9228 17.5962 12.7964 17.8405 11.5981C18.0848 10.3997 18.0511 9.16131 17.742 7.97801C15.993 8.098 14.2432 7.75702 12.6672 6.98913C11.0913 6.22125 9.74435 5.05333 8.761 3.60201C8.01934 4.36025 7.13397 4.96303 6.15665 5.37511C5.17932 5.7872 4.12965 6.00032 3.069 6.00201C2.36723 7.21832 1.99798 8.59792 1.99836 10.0022C1.99873 11.4064 2.36872 12.7858 3.07114 14.0017C3.77356 15.2177 4.78366 16.2273 5.99992 16.9291C7.21619 17.631 8.59576 18.0003 10 18Z" fill="#592502"/>
</svg>
