<svg width="194" height="194" viewBox="0 0 194 194" fill="none" xmlns="http://www.w3.org/2000/svg">
<path d="M115.714 142.844V144.516C115.362 144.557 115.027 144.629 114.689 144.629C109.389 144.639 104.091 144.644 98.791 144.641C94.8237 144.637 90.8564 144.619 86.8891 144.608C86.3129 144.608 86.1616 144.489 86.0568 143.839C85.8744 142.714 85.6669 141.589 85.564 140.454C84.9879 134.168 84.8133 127.867 85.0693 121.56C85.2168 117.921 85.7154 114.318 86.4002 110.739C86.7533 108.9 86.9453 107.03 87.3333 105.198C88.509 99.6384 89.9523 94.156 92.2105 88.918C93.7683 85.3057 95.7219 81.9301 98.174 78.8513C99.9045 76.6785 102.019 74.9403 104.392 73.5221C104.945 73.1904 105.185 72.8063 105.238 72.1796C105.69 66.7573 105.884 61.3273 105.719 55.8895C105.672 54.3724 105.517 52.8592 105.406 51.2761C96.3504 51.2548 87.3488 51.2315 78.2852 51.2102V49.4642C78.6169 49.4409 78.9079 49.404 79.1989 49.4021C83.4106 49.3827 87.6204 49.3536 91.8322 49.3575C96.752 49.3614 101.67 49.3943 106.59 49.4176C107.769 49.4234 107.793 49.4506 107.802 50.5777C107.82 52.7505 107.824 54.9233 107.862 57.0942C107.952 62.1246 107.8 67.1453 107.393 72.1622C106.902 78.2111 106.047 84.1999 104.593 90.0936C103.301 95.3316 101.573 100.412 99.0218 105.185C97.5668 107.905 95.8635 110.454 93.6383 112.615C92.0417 114.165 90.2724 115.446 88.0162 116.041C86.9861 124.901 87.2887 133.755 88.0492 142.67C97.3127 142.41 106.458 142.722 115.714 142.846V142.844ZM104.824 75.9277C104.628 75.9646 104.568 75.9607 104.528 75.9859C104.345 76.1043 104.165 76.2265 103.99 76.3526C102.574 77.3769 101.323 78.5778 100.197 79.9125C97.9762 82.5509 96.2903 85.521 94.8586 88.6425C91.384 96.2182 89.6089 104.254 88.4546 112.456C88.4314 112.627 88.4663 112.807 88.4779 113.046C89.6652 112.636 90.6371 112.016 91.4869 111.201C92.9651 109.783 94.2067 108.172 95.3067 106.45C97.2739 103.369 98.7774 100.061 100.033 96.6372C102.145 90.8832 103.519 84.941 104.436 78.8901C104.582 77.9279 104.69 76.9617 104.824 75.9297V75.9277Z" fill="#592502"/>
</svg>
