<svg width="26" height="66" viewBox="0 0 26 66" fill="none" xmlns="http://www.w3.org/2000/svg">
<path d="M25.5 64.2643V65.4138C25.2608 65.4418 25.0321 65.4912 24.8021 65.4912C21.1912 65.4978 17.5816 65.5018 13.9706 65.4992C11.2677 65.4965 8.56476 65.4845 5.86184 65.4765C5.46929 65.4765 5.36619 65.3951 5.29482 64.9484C5.17058 64.1749 5.02915 63.4014 4.9591 62.6213C4.56655 58.3005 4.4476 53.969 4.62206 49.6335C4.72252 47.1317 5.0622 44.6553 5.52876 42.1948C5.76932 40.9306 5.90017 39.645 6.16452 38.3861C6.96548 34.564 7.94884 30.7953 9.48733 27.1947C10.5487 24.7115 11.8796 22.3911 13.5503 20.2747C14.7293 18.7811 16.17 17.5862 17.7864 16.6114C18.1631 16.3833 18.327 16.1193 18.3627 15.6885C18.6707 11.9611 18.8028 8.22845 18.6905 4.49041C18.6588 3.44755 18.553 2.40736 18.4777 1.31915C12.3079 1.30449 6.17509 1.28848 0 1.27381V0.0735891C0.226015 0.0575862 0.424272 0.0322471 0.62253 0.0309135C3.49199 0.0175777 6.36013 -0.00242548 9.22959 0.000241685C12.5815 0.00290885 15.932 0.0255794 19.2839 0.0415824C20.0875 0.0455832 20.1034 0.0642528 20.11 0.839064C20.1219 2.33268 20.1245 3.82629 20.151 5.31857C20.2118 8.77655 20.1087 12.2279 19.8311 15.6765C19.4967 19.8346 18.9139 23.9514 17.9239 28.0028C17.0436 31.6035 15.866 35.0961 14.1279 38.3768C13.1366 40.2464 11.9761 41.9988 10.4601 43.4844C9.37234 44.5499 8.16693 45.4301 6.62976 45.8395C5.92793 51.93 6.13411 58.0164 6.65223 64.1442C12.9635 63.9655 19.1941 64.1803 25.5 64.2656V64.2643ZM18.0812 18.265C17.9477 18.2903 17.9067 18.2877 17.8789 18.305C17.7547 18.3863 17.6318 18.4704 17.5128 18.557C16.548 19.2612 15.6955 20.0867 14.9289 21.0042C13.4155 22.8178 12.2669 24.8596 11.2915 27.0053C8.92427 32.2129 7.7149 37.7366 6.92847 43.375C6.91261 43.4924 6.9364 43.6164 6.94433 43.7804C7.75323 43.4991 8.41541 43.0723 8.99432 42.5122C10.0015 41.5373 10.8474 40.4305 11.5968 39.2463C12.937 37.1285 13.9614 34.8548 14.8165 32.501C16.2559 28.5456 17.1916 24.4608 17.8168 20.3014C17.916 19.6399 17.99 18.9758 18.0812 18.2663V18.265Z" fill="#FFF4EA"/>
</svg>
