<svg width="59" height="42" viewBox="0 0 59 42" fill="none" xmlns="http://www.w3.org/2000/svg">
<path d="M21 17.5L14 7.7L16.8 3.5H25.2L28 7.7L21 17.5ZM27.125 11.9L25.025 14.875C28.875 16.45 31.5 20.125 31.5 24.5C31.5 27.2848 30.3938 29.9555 28.4246 31.9246C26.4555 33.8938 23.7848 35 21 35C18.2152 35 15.5445 33.8938 13.5754 31.9246C11.6062 29.9555 10.5 27.2848 10.5 24.5C10.5 20.125 13.125 16.45 16.975 14.875L14.875 11.9C10.15 14.175 7 18.9 7 24.5C7 28.213 8.475 31.774 11.1005 34.3995C13.726 37.025 17.287 38.5 21 38.5C24.713 38.5 28.274 37.025 30.8995 34.3995C33.525 31.774 35 28.213 35 24.5C35 18.9 31.85 14.175 27.125 11.9Z" fill="#592502"/>
<g clip-path="url(#clip0_124_8)">
<path d="M33.2876 11.3363L33.8122 14.9398C37.689 13.4321 42.1228 14.2909 45.1344 17.4644C47.0513 19.4844 48.0873 22.1832 48.0144 24.967C47.9415 27.7508 46.7657 30.3917 44.7457 32.3086C42.7257 34.2255 40.0269 35.2615 37.2431 35.1886C34.4593 35.1157 31.8185 33.9399 29.9015 31.9199C26.89 28.7464 26.2644 24.2737 27.9729 20.4811L24.4018 19.7686C22.5404 24.6714 23.5079 30.2671 27.3627 34.3292C29.9186 37.0225 33.4398 38.5902 37.1515 38.6874C40.8633 38.7846 44.4616 37.4033 47.1549 34.8474C49.8483 32.2915 51.416 28.7704 51.5132 25.0586C51.6104 21.3469 50.2291 17.7485 47.6732 15.0552C43.8184 10.9931 38.281 9.73403 33.2876 11.3363Z" fill="#592502"/>
</g>
<defs>
<clipPath id="clip0_124_8">
<rect width="42" height="42" fill="white" transform="translate(17)"/>
</clipPath>
</defs>
</svg>
