<svg width="34" height="34" viewBox="0 0 34 34" fill="none" xmlns="http://www.w3.org/2000/svg">
<path d="M11.3335 2.83325C9.91684 2.83325 10.1789 6.25734 8.21684 7.73775C6.75484 8.8385 4.09859 7.66975 3.01484 9.52134C2.68476 10.0852 2.84768 10.8303 3.17351 12.3193L5.99268 25.1953C6.54518 27.7198 6.88234 30.8025 9.91684 31.1666H24.0835C27.1166 30.8025 27.4552 27.7198 28.0077 25.1953L30.8268 12.3193C31.1527 10.8303 31.3156 10.0852 30.9855 9.52134C29.9018 7.66975 27.2455 8.8385 25.7849 7.73634C23.8214 6.25875 24.0835 2.83325 22.6668 2.83325M17.0129 15.5833H17.0002M17.0129 20.5416H17.0002M17.0129 25.4999H17.0002" stroke="#592502" stroke-width="2.5" stroke-linecap="round" stroke-linejoin="round"/>
<path d="M10.9429 3.00188C12.2633 2.25954 14.0837 4.16638 15.0229 4.87896C16.3078 5.85221 16.9496 6.33813 16.9963 6.98129C17.0012 7.0492 17.0012 7.11738 16.9963 7.18529C16.9496 7.82704 16.3078 8.31438 15.0243 9.28763C14.0837 10.0002 12.2618 11.907 10.9443 11.1647C9.57584 10.3969 9.57443 3.76971 10.9429 3.00188Z" stroke="#592502" stroke-width="2.5" stroke-linecap="round" stroke-linejoin="round"/>
<path d="M23.0581 3.00188C21.7377 2.25954 19.9173 4.16638 18.9781 4.87896C17.6932 5.85221 17.0514 6.33813 17.0047 6.98129C16.9998 7.0492 16.9998 7.11738 17.0047 7.18529C17.0514 7.82704 17.6932 8.31438 18.9767 9.28763C19.9173 10.0002 21.7392 11.907 23.0567 11.1647C24.4252 10.3969 24.4266 3.76971 23.0581 3.00188Z" stroke="#592502" stroke-width="2.5" stroke-linecap="round" stroke-linejoin="round"/>
</svg>
