<svg width="32" height="28" viewBox="0 0 32 28" fill="none" xmlns="http://www.w3.org/2000/svg">
<path d="M18.0587 14.3483C18.9035 13.617 19.5811 12.7125 20.0455 11.6962C20.51 10.68 20.7503 9.57567 20.7503 8.45829C20.7503 6.35866 19.9163 4.34503 18.4316 2.86036C16.9469 1.3757 14.9333 0.541626 12.8337 0.541626C10.734 0.541626 8.72039 1.3757 7.23573 2.86036C5.75107 4.34503 4.91699 6.35866 4.91699 8.45829C4.91698 9.57567 5.15734 10.68 5.62177 11.6962C6.0862 12.7125 6.76383 13.617 7.60866 14.3483C5.39221 15.3519 3.51173 16.9727 2.19204 19.0168C0.87236 21.0609 0.169323 23.4419 0.166992 25.875C0.166992 26.2949 0.333807 26.6976 0.63074 26.9945C0.927672 27.2915 1.3304 27.4583 1.75033 27.4583C2.17025 27.4583 2.57298 27.2915 2.86991 26.9945C3.16684 26.6976 3.33366 26.2949 3.33366 25.875C3.33366 23.3554 4.33455 20.939 6.11614 19.1574C7.89774 17.3759 10.3141 16.375 12.8337 16.375C15.3532 16.375 17.7696 17.3759 19.5512 19.1574C21.3328 20.939 22.3337 23.3554 22.3337 25.875C22.3337 26.2949 22.5005 26.6976 22.7974 26.9945C23.0943 27.2915 23.4971 27.4583 23.917 27.4583C24.3369 27.4583 24.7396 27.2915 25.0366 26.9945C25.3335 26.6976 25.5003 26.2949 25.5003 25.875C25.498 23.4419 24.795 21.0609 23.4753 19.0168C22.1556 16.9727 20.2751 15.3519 18.0587 14.3483ZM12.8337 13.2083C11.8942 13.2083 10.9758 12.9297 10.1947 12.4078C9.41357 11.8858 8.80475 11.144 8.44523 10.276C8.08572 9.40809 7.99165 8.45302 8.17493 7.53161C8.35821 6.6102 8.8106 5.76383 9.4749 5.09954C10.1392 4.43524 10.9856 3.98284 11.907 3.79956C12.8284 3.61628 13.7835 3.71035 14.6514 4.06987C15.5194 4.42938 16.2612 5.0382 16.7831 5.81933C17.3051 6.60047 17.5837 7.51883 17.5837 8.45829C17.5837 9.71807 17.0832 10.9263 16.1924 11.8171C15.3016 12.7078 14.0934 13.2083 12.8337 13.2083ZM31.3745 9.45579C31.2273 9.30739 31.0522 9.1896 30.8592 9.10922C30.6663 9.02883 30.4593 8.98745 30.2503 8.98745C30.0413 8.98745 29.8344 9.02883 29.6414 9.10922C29.4485 9.1896 29.2734 9.30739 29.1262 9.45579L25.9595 12.6225L24.9778 11.625C24.8306 11.4766 24.6555 11.3588 24.4626 11.2784C24.2696 11.198 24.0627 11.1566 23.8537 11.1566C23.6446 11.1566 23.4377 11.198 23.2447 11.2784C23.0518 11.3588 22.8767 11.4766 22.7295 11.625C22.4346 11.9216 22.2691 12.3229 22.2691 12.7412C22.2691 13.1595 22.4346 13.5608 22.7295 13.8575L24.8512 15.9791C25.1478 16.274 25.5491 16.4395 25.9674 16.4395C26.3857 16.4395 26.787 16.274 27.0837 15.9791L31.3112 11.7516C31.471 11.6081 31.6 11.4334 31.6902 11.2384C31.7804 11.0434 31.83 10.8321 31.8359 10.6173C31.8418 10.4025 31.804 10.1888 31.7247 9.9891C31.6453 9.78941 31.5262 9.60796 31.3745 9.45579Z" fill="#592502"/>
</svg>
